<svg width="29" height="30" viewBox="0 0 29 30" fill="none" xmlns="http://www.w3.org/2000/svg">
<g filter="url(#filter0_d)">
<path d="M24.4252 11.2857C24.4252 10.8304 24.2511 10.3884 23.9297 10.0804L15.2109 1.36161C14.8895 1.04018 14.4475 0.852677 13.9922 0.852677C13.5368 0.852677 13.1083 1.04018 12.7868 1.36161L11.7824 2.36607C11.4609 2.67411 11.2734 3.11607 11.2734 3.57143C11.2734 4.02678 11.4609 4.46875 11.7824 4.77678L15.7065 8.71428H6.2779C5.31362 8.71428 4.71094 9.51786 4.71094 10.4286V12.1429C4.71094 13.0536 5.31362 13.8571 6.2779 13.8571H15.7065L11.7824 17.7812C11.4609 18.1027 11.2734 18.5446 11.2734 19C11.2734 19.4554 11.4609 19.8973 11.7824 20.2188L12.7868 21.2232C13.1083 21.5313 13.5368 21.7188 13.9922 21.7188C14.4475 21.7188 14.8895 21.5313 15.2109 21.2232L23.9297 12.5045C24.2511 12.183 24.4252 11.7411 24.4252 11.2857Z" fill="#4E4E4E"/>
</g>
<defs>
<filter id="filter0_d" x="0.710938" y="0.852783" width="27.7143" height="28.8661" filterUnits="userSpaceOnUse" color-interpolation-filters="sRGB">
<feFlood flood-opacity="0" result="BackgroundImageFix"/>
<feColorMatrix in="SourceAlpha" type="matrix" values="0 0 0 0 0 0 0 0 0 0 0 0 0 0 0 0 0 0 127 0"/>
<feOffset dy="4"/>
<feGaussianBlur stdDeviation="2"/>
<feColorMatrix type="matrix" values="0 0 0 0 0 0 0 0 0 0 0 0 0 0 0 0 0 0 0.25 0"/>
<feBlend mode="normal" in2="BackgroundImageFix" result="effect1_dropShadow"/>
<feBlend mode="normal" in="SourceGraphic" in2="effect1_dropShadow" result="shape"/>
</filter>
</defs>
</svg>
