<svg width="30" height="30" viewBox="0 0 30 30" fill="none" xmlns="http://www.w3.org/2000/svg">
<path d="M15 0C23.283 0 30 6.717 30 15C30 23.283 23.283 30 15 30C6.717 30 0 23.283 0 15C0 6.717 6.717 0 15 0Z" fill="#CC9D25"/>
<path d="M11.6552 23C18.4485 23 22.1677 16.8444 22.1677 11.5048C22.1677 11.3315 22.1677 11.1551 22.1562 10.9819C22.8793 10.4085 23.5045 9.70287 24 8.89011C23.3259 9.21773 22.6114 9.43195 21.8796 9.52645C22.6517 9.02242 23.2279 8.22856 23.5045 7.29294C22.7785 7.76232 21.9862 8.09625 21.1594 8.27266C19.7593 6.64714 17.42 6.56838 15.9334 8.09625C14.9741 9.08227 14.5679 10.5534 14.8646 11.9553C11.8944 11.7915 9.1258 10.2573 7.25032 7.73397C6.27081 9.58001 6.76921 11.9395 8.39405 13.1272C7.80634 13.1083 7.23015 12.935 6.71735 12.6231C6.71735 12.6389 6.71735 12.6578 6.71735 12.6735C6.71735 14.5952 7.95615 16.2522 9.68182 16.6334C9.13732 16.794 8.5669 16.8192 8.01376 16.7027C8.49776 18.3471 9.88348 19.4749 11.4651 19.5095C10.1572 20.6342 8.54097 21.2453 6.87868 21.2422C6.58483 21.2422 6.29097 21.2233 6 21.1823C7.68246 22.37 9.65013 23 11.6552 23Z" fill="white"/>
</svg>
