<svg width="30" height="30" viewBox="0 0 30 30" fill="none" xmlns="http://www.w3.org/2000/svg">
<path d="M15 30C6.717 30 0 23.283 0 15C0 6.717 6.717 0 15 0C23.283 0 30 6.717 30 15C30 23.283 23.283 30 15 30Z" fill="#CC9D25"/>
<path d="M15 7.55403C17.4016 7.55403 17.6863 7.56161 18.6353 7.60457C19.5132 7.64247 19.9903 7.78398 20.3067 7.90274C20.7258 8.05941 21.0264 8.2464 21.3401 8.5471C21.6538 8.8478 21.8489 9.13586 22.0123 9.53763C22.1362 9.84086 22.2812 10.2982 22.3234 11.1397C22.3656 12.0494 22.3761 12.3223 22.3761 14.6242C22.3761 16.9262 22.3682 17.1991 22.3234 18.1088C22.2838 18.9503 22.1362 19.4076 22.0123 19.7109C21.8489 20.1126 21.6538 20.4007 21.3401 20.7014C21.0264 21.0021 20.7258 21.1891 20.3067 21.3458C19.9903 21.4645 19.5132 21.6035 18.6353 21.6439C17.6863 21.6844 17.4016 21.6945 15 21.6945C12.5984 21.6945 12.3137 21.6869 11.3647 21.6439C10.4868 21.606 10.0097 21.4645 9.69332 21.3458C9.27417 21.1891 8.97364 21.0021 8.65993 20.7014C8.34622 20.4007 8.15114 20.1126 7.9877 19.7109C7.8638 19.4076 7.7188 18.9503 7.67663 18.1088C7.63445 17.1991 7.6239 16.9262 7.6239 14.6242C7.6239 12.3223 7.63181 12.0494 7.67663 11.1397C7.71617 10.2982 7.8638 9.84086 7.9877 9.53763C8.15114 9.13586 8.34622 8.8478 8.65993 8.5471C8.97364 8.2464 9.27417 8.05941 9.69332 7.90274C10.0097 7.78398 10.4868 7.645 11.3647 7.60457C12.3137 7.56161 12.5984 7.55403 15 7.55403ZM15 6C12.5562 6 12.2504 6.01011 11.2909 6.05306C10.3339 6.09602 9.68014 6.24005 9.10545 6.45484C8.51494 6.67215 8.01142 6.9678 7.51318 7.4479C7.0123 7.92801 6.7065 8.40812 6.47452 8.97667C6.25308 9.525 6.10018 10.1517 6.05536 11.0715C6.01054 11.9912 6 12.2844 6 14.6268C6 16.9692 6.01054 17.2623 6.05536 18.1821C6.10018 19.0994 6.25044 19.726 6.47452 20.2769C6.70387 20.8404 7.0123 21.323 7.51318 21.8006C8.01406 22.2807 8.51494 22.5738 9.10808 22.7962C9.68014 23.0084 10.3339 23.155 11.2935 23.198C12.2531 23.2409 12.5589 23.251 15.0026 23.251C17.4464 23.251 17.7522 23.2409 18.7118 23.198C19.6687 23.155 20.3225 23.011 20.8972 22.7962C21.4851 22.5763 21.9886 22.2807 22.4868 21.8006C22.9877 21.3205 23.2935 20.8404 23.5255 20.2718C23.7469 19.7235 23.8998 19.0968 23.9446 18.177C23.9895 17.2573 24 16.9641 24 14.6217C24 12.2793 23.9895 11.9862 23.9446 11.0664C23.8998 10.1491 23.7496 9.52247 23.5255 8.97161C23.2961 8.40812 22.9877 7.92548 22.4868 7.4479C21.9859 6.9678 21.4851 6.67468 20.8919 6.45231C20.3199 6.24005 19.6661 6.09349 18.7065 6.05054C17.7496 6.01011 17.4438 6 15 6Z" fill="white"/>
<path d="M15 10.1946C12.4482 10.1946 10.3788 12.1782 10.3788 14.6242C10.3788 17.0702 12.4482 19.0538 15 19.0538C17.5519 19.0538 19.6213 17.0702 19.6213 14.6242C19.6213 12.1782 17.5519 10.1946 15 10.1946ZM15 17.4998C13.3445 17.4998 12 16.2136 12 14.6242C12 13.0348 13.3445 11.7486 15 11.7486C16.6556 11.7486 18 13.0348 18 14.6242C18 16.2136 16.6556 17.4998 15 17.4998Z" fill="white"/>
<path d="M19.8032 11.0563C20.4001 11.0563 20.884 10.5925 20.884 10.0203C20.884 9.4481 20.4001 8.98425 19.8032 8.98425C19.2062 8.98425 18.7223 9.4481 18.7223 10.0203C18.7223 10.5925 19.2062 11.0563 19.8032 11.0563Z" fill="white"/>
</svg>
