<svg width="30" height="30" viewBox="0 0 30 30" fill="none" xmlns="http://www.w3.org/2000/svg">
<path d="M15 30C6.717 30 0 23.283 0 15C0 6.717 6.717 0 15 0C23.283 0 30 6.717 30 15C30 23.283 23.283 30 15 30Z" fill="#CC9D25"/>
<path d="M18.8999 30.0001V18.3811H22.7999L23.3849 13.8541H18.8999V10.9621C18.8999 9.65108 19.2629 8.75708 21.1439 8.75708H23.5409V4.71008C23.1269 4.65608 21.7019 4.53308 20.0459 4.53308C16.5899 4.53308 14.2229 6.64208 14.2229 10.5181V13.8571H10.3139V18.3841H14.2229V30.0001H18.8999Z" fill="white"/>
</svg>
