<svg width="21" height="18" viewBox="0 0 21 18" fill="none" xmlns="http://www.w3.org/2000/svg">
<path d="M20.7824 15.4286C20.7824 14.9598 20.394 14.5714 19.9252 14.5714H1.06808C0.59933 14.5714 0.210938 14.9598 0.210938 15.4286V17.1429C0.210938 17.6116 0.59933 18 1.06808 18H19.9252C20.394 18 20.7824 17.6116 20.7824 17.1429V15.4286ZM20.7824 8.57143C20.7824 8.10268 20.394 7.71428 19.9252 7.71428H1.06808C0.59933 7.71428 0.210938 8.10268 0.210938 8.57143V10.2857C0.210938 10.7545 0.59933 11.1429 1.06808 11.1429H19.9252C20.394 11.1429 20.7824 10.7545 20.7824 10.2857V8.57143ZM20.7824 1.71428C20.7824 1.24553 20.394 0.857142 19.9252 0.857142H1.06808C0.59933 0.857142 0.210938 1.24553 0.210938 1.71428V3.42857C0.210938 3.89732 0.59933 4.28571 1.06808 4.28571H19.9252C20.394 4.28571 20.7824 3.89732 20.7824 3.42857V1.71428Z" fill="white"/>
</svg>
