<svg width="360" height="182" viewBox="0 0 360 182" fill="none" xmlns="http://www.w3.org/2000/svg">
<path d="M358.5 91C358.5 115.263 339.01 137.624 306.602 154.008C274.279 170.349 229.521 180.5 180 180.5C130.479 180.5 85.7205 170.349 53.3975 154.008C20.9895 137.624 1.5 115.263 1.5 91C1.5 66.7366 20.9895 44.376 53.3975 27.9919C85.7205 11.6509 130.479 1.5 180 1.5C229.521 1.5 274.279 11.6509 306.602 27.9919C339.01 44.376 358.5 66.7366 358.5 91Z" fill="white" stroke="#555555" stroke-width="3"/>
<path d="M99.1484 128.5L180.5 15.4281L261.852 128.5H99.1484Z" fill="white" stroke="black" stroke-width="0.5"/>
<path d="M37.1639 128.73L148 60.3342L258.836 128.73H37.1639Z" fill="black" fill-opacity="0.7" stroke="black" stroke-width="0.5"/>
<path d="M154.809 128.73L221 38.4028L287.191 128.73H154.809Z" fill="#C4C4C4" stroke="black" stroke-width="0.5"/>
<path d="M90.9328 128.73L206.5 60.3309L322.067 128.73H90.9328Z" fill="black" fill-opacity="0.5" stroke="black" stroke-width="0.5"/>
<path d="M130.751 90.1456L124.595 101.981C124.529 102.107 124.451 102.2 124.361 102.26C124.277 102.32 124.169 102.35 124.037 102.35H122.858L124.838 98.7226L122.471 90.1456H123.794C123.926 90.1456 124.022 90.1786 124.082 90.2446C124.142 90.3046 124.187 90.3826 124.217 90.4786L125.684 96.2206C125.714 96.3466 125.738 96.4726 125.756 96.5986C125.774 96.7246 125.789 96.8506 125.801 96.9766C125.855 96.8506 125.909 96.7246 125.963 96.5986C126.017 96.4666 126.074 96.3376 126.134 96.2116L129.014 90.4606C129.062 90.3646 129.128 90.2896 129.212 90.2356C129.302 90.1756 129.392 90.1456 129.482 90.1456H130.751ZM134.303 98.1376C134.741 98.1376 135.137 98.0176 135.491 97.7776C135.851 97.5376 136.157 97.2196 136.409 96.8236C136.667 96.4216 136.865 95.9596 137.003 95.4376C137.141 94.9156 137.21 94.3696 137.21 93.7996C137.21 92.9596 137.042 92.3296 136.706 91.9096C136.376 91.4836 135.899 91.2706 135.275 91.2706C134.831 91.2706 134.429 91.3906 134.069 91.6306C133.715 91.8646 133.412 92.1796 133.16 92.5756C132.908 92.9716 132.713 93.4306 132.575 93.9526C132.437 94.4746 132.368 95.0206 132.368 95.5906C132.368 96.4306 132.533 97.0666 132.863 97.4986C133.193 97.9246 133.673 98.1376 134.303 98.1376ZM134.15 99.3886C133.652 99.3886 133.196 99.3046 132.782 99.1366C132.368 98.9626 132.011 98.7136 131.711 98.3896C131.411 98.0656 131.177 97.6696 131.009 97.2016C130.841 96.7336 130.757 96.1996 130.757 95.5996C130.757 94.8316 130.877 94.1086 131.117 93.4306C131.357 92.7526 131.687 92.1616 132.107 91.6576C132.527 91.1476 133.019 90.7456 133.583 90.4516C134.153 90.1576 134.765 90.0106 135.419 90.0106C135.917 90.0106 136.373 90.0976 136.787 90.2716C137.201 90.4396 137.558 90.6856 137.858 91.0096C138.158 91.3336 138.392 91.7296 138.56 92.1976C138.728 92.6656 138.812 93.1966 138.812 93.7906C138.812 94.5526 138.692 95.2726 138.452 95.9506C138.212 96.6286 137.882 97.2226 137.462 97.7326C137.048 98.2426 136.556 98.6476 135.986 98.9476C135.416 99.2416 134.804 99.3886 134.15 99.3886ZM148.335 90.1456L147.237 99.2626H146.445C146.055 99.2626 145.86 99.0706 145.86 98.6866L145.995 97.0216C145.515 97.8016 144.972 98.3926 144.366 98.7946C143.766 99.1906 143.148 99.3886 142.512 99.3886C142.128 99.3886 141.789 99.3136 141.495 99.1636C141.201 99.0076 140.961 98.7826 140.775 98.4886C140.595 98.1946 140.472 97.8346 140.406 97.4086C140.34 96.9826 140.343 96.4936 140.415 95.9416L141.099 90.1456H142.692L142.008 95.9416C141.924 96.6556 141.966 97.1866 142.134 97.5346C142.308 97.8826 142.632 98.0566 143.106 98.0566C143.382 98.0566 143.667 97.9816 143.961 97.8316C144.255 97.6816 144.537 97.4686 144.807 97.1926C145.077 96.9166 145.329 96.5836 145.563 96.1936C145.803 95.7976 146.007 95.3596 146.175 94.8796L146.742 90.1456H148.335ZM151.904 92.6836C152.144 92.1736 152.402 91.7326 152.678 91.3606C152.96 90.9826 153.254 90.6886 153.56 90.4786C153.866 90.2626 154.181 90.1336 154.505 90.0916C154.829 90.0436 155.159 90.0916 155.495 90.2356L155.207 91.7746C154.427 91.4626 153.737 91.5766 153.137 92.1166C152.543 92.6566 152.06 93.6316 151.688 95.0416L151.184 99.2626H149.618L150.716 90.1366H151.508C151.874 90.1366 152.057 90.3166 152.057 90.6766L151.904 92.6836ZM170.156 96.4626H177.456V99.2626H166.556V85.2626H170.156V96.4626ZM190.861 89.0626C190.861 88.2626 190.461 87.8626 189.661 87.8626H186.261C185.461 87.8626 185.061 88.2626 185.061 89.0626V95.4626C185.061 96.2626 185.461 96.6626 186.261 96.6626H189.661C190.461 96.6626 190.861 96.2626 190.861 95.4626V89.0626ZM194.461 95.4626C194.461 96.8626 194.141 97.8826 193.501 98.5226C192.874 99.1493 191.861 99.4626 190.461 99.4626H185.461C184.061 99.4626 183.041 99.1493 182.401 98.5226C181.774 97.8826 181.461 96.8626 181.461 95.4626V89.0626C181.461 87.6626 181.774 86.6493 182.401 86.0226C183.041 85.3826 184.061 85.0626 185.461 85.0626H190.461C191.861 85.0626 192.874 85.3826 193.501 86.0226C194.141 86.6493 194.461 87.6626 194.461 89.0626V95.4626ZM210.271 99.0626C207.297 99.3293 204.831 99.4626 202.871 99.4626C201.564 99.4626 200.604 99.156 199.991 98.5426C199.377 97.9293 199.071 96.9693 199.071 95.6626V89.2626C199.071 87.8626 199.384 86.8493 200.011 86.2226C200.651 85.5826 201.671 85.2626 203.071 85.2626H210.271V88.0626H203.871C203.071 88.0626 202.671 88.4626 202.671 89.2626V95.6626C202.671 95.9693 202.757 96.216 202.931 96.4026C203.117 96.576 203.351 96.6626 203.631 96.6626C203.911 96.6626 204.217 96.6626 204.551 96.6626C204.884 96.6493 205.231 96.636 205.591 96.6226C205.951 96.6093 206.311 96.596 206.671 96.5826C207.044 96.5693 207.517 96.5426 208.091 96.5026C208.677 96.4626 209.404 96.416 210.271 96.3626V99.0626ZM217.373 99.2626H213.473L218.773 85.2626H222.773L228.073 99.2626H224.173L223.273 96.7626H218.273L217.373 99.2626ZM219.173 94.1626H222.373L220.773 89.4626L219.173 94.1626ZM235.672 96.4626H242.972V99.2626H232.072V85.2626H235.672V96.4626Z" fill="white"/>
<path d="M115.791 113.366L119.191 103.566H123.091L117.791 117.566H113.791L108.491 103.566H112.391L115.791 113.366ZM130.184 117.566H126.284L131.584 103.566H135.584L140.884 117.566H136.984L136.084 115.066H131.084L130.184 117.566ZM131.984 112.466H135.184L133.584 107.766L131.984 112.466ZM158.493 117.266C155.373 117.599 152.506 117.766 149.893 117.766C148.586 117.766 147.626 117.459 147.013 116.846C146.4 116.232 146.093 115.272 146.093 113.966V107.566C146.093 106.166 146.406 105.152 147.033 104.526C147.673 103.886 148.693 103.566 150.093 103.566H157.293V106.366H150.893C150.093 106.366 149.693 106.766 149.693 107.566V113.966C149.693 114.272 149.78 114.519 149.953 114.706C150.14 114.879 150.386 114.966 150.693 114.966C152.226 114.966 153.626 114.932 154.893 114.866V111.966H152.293V109.566H158.493V117.266ZM167.997 117.566H164.097L169.397 103.566H173.397L178.697 117.566H174.797L173.897 115.066H168.897L167.997 117.566ZM169.797 112.466H172.997L171.397 107.766L169.797 112.466ZM184.696 103.566H192.696C194.003 103.566 194.963 103.866 195.576 104.466C196.189 105.052 196.496 105.952 196.496 107.166C196.496 107.966 196.323 108.619 195.976 109.126C195.629 109.619 195.203 109.966 194.696 110.166C195.776 110.459 196.509 111.179 196.896 112.326C197.029 112.739 197.096 113.219 197.096 113.766C197.096 115.072 196.789 116.032 196.176 116.646C195.563 117.259 194.603 117.566 193.296 117.566H184.696V103.566ZM193.496 113.166C193.496 112.366 193.096 111.966 192.296 111.966H188.296V114.766H192.296C193.096 114.766 193.496 114.366 193.496 113.566V113.166ZM192.896 107.566C192.896 106.766 192.496 106.366 191.696 106.366H188.296V109.166H191.696C192.496 109.166 192.896 108.766 192.896 107.966V107.566ZM212.895 107.366C212.895 106.566 212.495 106.166 211.695 106.166H208.295C207.495 106.166 207.095 106.566 207.095 107.366V113.766C207.095 114.566 207.495 114.966 208.295 114.966H211.695C212.495 114.966 212.895 114.566 212.895 113.766V107.366ZM216.495 113.766C216.495 115.166 216.175 116.186 215.535 116.826C214.909 117.452 213.895 117.766 212.495 117.766H207.495C206.095 117.766 205.075 117.452 204.435 116.826C203.809 116.186 203.495 115.166 203.495 113.766V107.366C203.495 105.966 203.809 104.952 204.435 104.326C205.075 103.686 206.095 103.366 207.495 103.366H212.495C213.895 103.366 214.909 103.686 215.535 104.326C216.175 104.952 216.495 105.966 216.495 107.366V113.766ZM235.705 117.566H231.905L227.105 109.166V117.566H223.505V103.566H227.305L232.105 111.966V103.566H235.705V117.566ZM250.914 103.566C252.421 103.566 253.561 103.959 254.334 104.746C255.121 105.519 255.514 106.659 255.514 108.166V112.966C255.514 114.472 255.121 115.619 254.334 116.406C253.561 117.179 252.421 117.566 250.914 117.566H243.114V103.566H250.914ZM251.914 108.166C251.914 106.966 251.314 106.366 250.114 106.366H246.714V114.766H250.114C251.314 114.766 251.914 114.166 251.914 112.966V108.166Z" fill="#EBB733"/>
<path d="M115.791 113.366L115.319 113.53L115.791 114.891L116.264 113.53L115.791 113.366ZM119.191 103.566V103.066H118.836L118.719 103.402L119.191 103.566ZM123.091 103.566L123.559 103.743L123.815 103.066H123.091V103.566ZM117.791 117.566V118.066H118.137L118.259 117.743L117.791 117.566ZM113.791 117.566L113.324 117.743L113.446 118.066H113.791V117.566ZM108.491 103.566V103.066H107.767L108.024 103.743L108.491 103.566ZM112.391 103.566L112.864 103.402L112.747 103.066H112.391V103.566ZM116.264 113.53L119.664 103.73L118.719 103.402L115.319 113.202L116.264 113.53ZM119.191 104.066H123.091V103.066H119.191V104.066ZM122.624 103.389L117.324 117.389L118.259 117.743L123.559 103.743L122.624 103.389ZM117.791 117.066H113.791V118.066H117.791V117.066ZM114.259 117.389L108.959 103.389L108.024 103.743L113.324 117.743L114.259 117.389ZM108.491 104.066H112.391V103.066H108.491V104.066ZM111.919 103.73L115.319 113.53L116.264 113.202L112.864 103.402L111.919 103.73ZM130.184 117.566V118.066H130.536L130.655 117.735L130.184 117.566ZM126.284 117.566L125.817 117.389L125.56 118.066H126.284V117.566ZM131.584 103.566V103.066H131.239L131.117 103.389L131.584 103.566ZM135.584 103.566L136.052 103.389L135.93 103.066H135.584V103.566ZM140.884 117.566V118.066H141.608L141.352 117.389L140.884 117.566ZM136.984 117.566L136.514 117.735L136.633 118.066H136.984V117.566ZM136.084 115.066L136.555 114.896L136.436 114.566H136.084V115.066ZM131.084 115.066V114.566H130.733L130.614 114.896L131.084 115.066ZM131.984 112.466L131.511 112.305L131.286 112.966H131.984V112.466ZM135.184 112.466V112.966H135.883L135.658 112.305L135.184 112.466ZM133.584 107.766L134.058 107.605L133.584 106.214L133.111 107.605L133.584 107.766ZM130.184 117.066H126.284V118.066H130.184V117.066ZM126.752 117.743L132.052 103.743L131.117 103.389L125.817 117.389L126.752 117.743ZM131.584 104.066H135.584V103.066H131.584V104.066ZM135.117 103.743L140.417 117.743L141.352 117.389L136.052 103.389L135.117 103.743ZM140.884 117.066H136.984V118.066H140.884V117.066ZM137.455 117.396L136.555 114.896L135.614 115.235L136.514 117.735L137.455 117.396ZM136.084 114.566H131.084V115.566H136.084V114.566ZM130.614 114.896L129.714 117.396L130.655 117.735L131.555 115.235L130.614 114.896ZM131.984 112.966H135.184V111.966H131.984V112.966ZM135.658 112.305L134.058 107.605L133.111 107.927L134.711 112.627L135.658 112.305ZM133.111 107.605L131.511 112.305L132.458 112.627L134.058 107.927L133.111 107.605ZM158.493 117.266L158.546 117.763L158.993 117.715V117.266H158.493ZM147.013 116.846L147.367 116.492L147.013 116.846ZM147.033 104.526L147.387 104.879V104.879L147.033 104.526ZM157.293 103.566H157.793V103.066H157.293V103.566ZM157.293 106.366V106.866H157.793V106.366H157.293ZM149.953 114.706L149.587 115.046L149.599 115.059L149.613 115.072L149.953 114.706ZM154.893 114.866L154.919 115.365L155.393 115.34V114.866H154.893ZM154.893 111.966H155.393V111.466H154.893V111.966ZM152.293 111.966H151.793V112.466H152.293V111.966ZM152.293 109.566V109.066H151.793V109.566H152.293ZM158.493 109.566H158.993V109.066H158.493V109.566ZM158.44 116.769C155.334 117.1 152.485 117.266 149.893 117.266V118.266C152.527 118.266 155.412 118.098 158.546 117.763L158.44 116.769ZM149.893 117.266C148.653 117.266 147.848 116.973 147.367 116.492L146.659 117.199C147.405 117.945 148.52 118.266 149.893 118.266V117.266ZM147.367 116.492C146.885 116.011 146.593 115.206 146.593 113.966H145.593C145.593 115.339 145.914 116.454 146.659 117.199L147.367 116.492ZM146.593 113.966V107.566H145.593V113.966H146.593ZM146.593 107.566C146.593 106.224 146.896 105.37 147.387 104.879L146.679 104.172C145.917 104.935 145.593 106.107 145.593 107.566H146.593ZM147.387 104.879C147.892 104.373 148.755 104.066 150.093 104.066V103.066C148.631 103.066 147.454 103.398 146.679 104.172L147.387 104.879ZM150.093 104.066H157.293V103.066H150.093V104.066ZM156.793 103.566V106.366H157.793V103.566H156.793ZM157.293 105.866H150.893V106.866H157.293V105.866ZM150.893 105.866C150.416 105.866 149.966 105.985 149.639 106.312C149.313 106.639 149.193 107.089 149.193 107.566H150.193C150.193 107.243 150.273 107.092 150.347 107.019C150.42 106.946 150.57 106.866 150.893 106.866V105.866ZM149.193 107.566V113.966H150.193V107.566H149.193ZM149.193 113.966C149.193 114.371 149.31 114.749 149.587 115.046L150.319 114.365C150.249 114.289 150.193 114.173 150.193 113.966H149.193ZM149.613 115.072C149.91 115.348 150.287 115.466 150.693 115.466V114.466C150.485 114.466 150.369 114.41 150.293 114.339L149.613 115.072ZM150.693 115.466C152.233 115.466 153.642 115.432 154.919 115.365L154.867 114.366C153.61 114.432 152.219 114.466 150.693 114.466V115.466ZM155.393 114.866V111.966H154.393V114.866H155.393ZM154.893 111.466H152.293V112.466H154.893V111.466ZM152.793 111.966V109.566H151.793V111.966H152.793ZM152.293 110.066H158.493V109.066H152.293V110.066ZM157.993 109.566V117.266H158.993V109.566H157.993ZM167.997 117.566V118.066H168.348L168.467 117.735L167.997 117.566ZM164.097 117.566L163.629 117.389L163.373 118.066H164.097V117.566ZM169.397 103.566V103.066H169.052L168.929 103.389L169.397 103.566ZM173.397 103.566L173.864 103.389L173.742 103.066H173.397V103.566ZM178.697 117.566V118.066H179.421L179.164 117.389L178.697 117.566ZM174.797 117.566L174.326 117.735L174.445 118.066H174.797V117.566ZM173.897 115.066L174.367 114.896L174.248 114.566H173.897V115.066ZM168.897 115.066V114.566H168.545L168.426 114.896L168.897 115.066ZM169.797 112.466L169.324 112.305L169.098 112.966H169.797V112.466ZM172.997 112.466V112.966H173.695L173.47 112.305L172.997 112.466ZM171.397 107.766L171.87 107.605L171.397 106.214L170.924 107.605L171.397 107.766ZM167.997 117.066H164.097V118.066H167.997V117.066ZM164.564 117.743L169.864 103.743L168.929 103.389L163.629 117.389L164.564 117.743ZM169.397 104.066H173.397V103.066H169.397V104.066ZM172.929 103.743L178.229 117.743L179.164 117.389L173.864 103.389L172.929 103.743ZM178.697 117.066H174.797V118.066H178.697V117.066ZM175.267 117.396L174.367 114.896L173.426 115.235L174.326 117.735L175.267 117.396ZM173.897 114.566H168.897V115.566H173.897V114.566ZM168.426 114.896L167.526 117.396L168.467 117.735L169.367 115.235L168.426 114.896ZM169.797 112.966H172.997V111.966H169.797V112.966ZM173.47 112.305L171.87 107.605L170.924 107.927L172.524 112.627L173.47 112.305ZM170.924 107.605L169.324 112.305L170.27 112.627L171.87 107.927L170.924 107.605ZM184.696 103.566V103.066H184.196V103.566H184.696ZM195.576 104.466L195.226 104.823L195.23 104.827L195.576 104.466ZM195.976 109.126L196.385 109.413L196.389 109.408L195.976 109.126ZM194.696 110.166L194.513 109.701L193.112 110.253L194.565 110.648L194.696 110.166ZM196.896 112.326L197.372 112.172L197.37 112.166L196.896 112.326ZM196.176 116.646L195.823 116.292L196.176 116.646ZM184.696 117.566H184.196V118.066H184.696V117.566ZM188.296 111.966V111.466H187.796V111.966H188.296ZM188.296 114.766H187.796V115.266H188.296V114.766ZM188.296 106.366V105.866H187.796V106.366H188.296ZM188.296 109.166H187.796V109.666H188.296V109.166ZM184.696 104.066H192.696V103.066H184.696V104.066ZM192.696 104.066C193.939 104.066 194.745 104.353 195.226 104.823L195.926 104.108C195.18 103.379 194.067 103.066 192.696 103.066V104.066ZM195.23 104.827C195.709 105.285 195.996 106.029 195.996 107.166H196.996C196.996 105.875 196.67 104.82 195.922 104.104L195.23 104.827ZM195.996 107.166C195.996 107.895 195.838 108.442 195.563 108.843L196.389 109.408C196.807 108.796 196.996 108.036 196.996 107.166H195.996ZM195.567 108.838C195.27 109.26 194.919 109.54 194.513 109.701L194.88 110.631C195.487 110.391 195.989 109.978 196.385 109.413L195.567 108.838ZM194.565 110.648C195.469 110.894 196.084 111.482 196.422 112.485L197.37 112.166C196.935 110.876 196.083 110.024 194.827 109.683L194.565 110.648ZM196.42 112.479C196.534 112.832 196.596 113.258 196.596 113.766H197.596C197.596 113.18 197.525 112.646 197.372 112.172L196.42 112.479ZM196.596 113.766C196.596 115.006 196.304 115.811 195.823 116.292L196.53 116.999C197.275 116.254 197.596 115.139 197.596 113.766H196.596ZM195.823 116.292C195.341 116.773 194.536 117.066 193.296 117.066V118.066C194.669 118.066 195.784 117.745 196.53 116.999L195.823 116.292ZM193.296 117.066H184.696V118.066H193.296V117.066ZM185.196 117.566V103.566H184.196V117.566H185.196ZM193.996 113.166C193.996 112.689 193.876 112.239 193.55 111.912C193.223 111.585 192.773 111.466 192.296 111.466V112.466C192.619 112.466 192.769 112.546 192.843 112.619C192.916 112.692 192.996 112.843 192.996 113.166H193.996ZM192.296 111.466H188.296V112.466H192.296V111.466ZM187.796 111.966V114.766H188.796V111.966H187.796ZM188.296 115.266H192.296V114.266H188.296V115.266ZM192.296 115.266C192.773 115.266 193.223 115.146 193.55 114.819C193.876 114.492 193.996 114.043 193.996 113.566H192.996C192.996 113.889 192.916 114.039 192.843 114.112C192.769 114.185 192.619 114.266 192.296 114.266V115.266ZM193.996 113.566V113.166H192.996V113.566H193.996ZM193.396 107.566C193.396 107.089 193.276 106.639 192.95 106.312C192.623 105.985 192.173 105.866 191.696 105.866V106.866C192.019 106.866 192.169 106.946 192.243 107.019C192.316 107.092 192.396 107.243 192.396 107.566H193.396ZM191.696 105.866H188.296V106.866H191.696V105.866ZM187.796 106.366V109.166H188.796V106.366H187.796ZM188.296 109.666H191.696V108.666H188.296V109.666ZM191.696 109.666C192.173 109.666 192.623 109.546 192.95 109.219C193.276 108.892 193.396 108.443 193.396 107.966H192.396C192.396 108.289 192.316 108.439 192.243 108.512C192.169 108.585 192.019 108.666 191.696 108.666V109.666ZM193.396 107.966V107.566H192.396V107.966H193.396ZM215.535 116.826L215.182 116.472L215.535 116.826ZM204.435 116.826L204.078 117.176L204.085 117.183L204.435 116.826ZM204.435 104.326L204.082 103.972L204.435 104.326ZM215.535 104.326L215.178 104.676L215.186 104.683L215.535 104.326ZM213.395 107.366C213.395 106.889 213.276 106.439 212.949 106.112C212.622 105.785 212.172 105.666 211.695 105.666V106.666C212.018 106.666 212.169 106.746 212.242 106.819C212.315 106.892 212.395 107.043 212.395 107.366H213.395ZM211.695 105.666H208.295V106.666H211.695V105.666ZM208.295 105.666C207.818 105.666 207.369 105.785 207.042 106.112C206.715 106.439 206.595 106.889 206.595 107.366H207.595C207.595 107.043 207.676 106.892 207.749 106.819C207.822 106.746 207.972 106.666 208.295 106.666V105.666ZM206.595 107.366V113.766H207.595V107.366H206.595ZM206.595 113.766C206.595 114.243 206.715 114.692 207.042 115.019C207.369 115.346 207.818 115.466 208.295 115.466V114.466C207.972 114.466 207.822 114.385 207.749 114.312C207.676 114.239 207.595 114.089 207.595 113.766H206.595ZM208.295 115.466H211.695V114.466H208.295V115.466ZM211.695 115.466C212.172 115.466 212.622 115.346 212.949 115.019C213.276 114.692 213.395 114.243 213.395 113.766H212.395C212.395 114.089 212.315 114.239 212.242 114.312C212.169 114.385 212.018 114.466 211.695 114.466V115.466ZM213.395 113.766V107.366H212.395V113.766H213.395ZM215.995 113.766C215.995 115.104 215.688 115.966 215.182 116.472L215.889 117.179C216.663 116.405 216.995 115.228 216.995 113.766H215.995ZM215.182 116.472C214.691 116.963 213.837 117.266 212.495 117.266V118.266C213.954 118.266 215.126 117.942 215.889 117.179L215.182 116.472ZM212.495 117.266H207.495V118.266H212.495V117.266ZM207.495 117.266C206.155 117.266 205.291 116.964 204.785 116.468L204.085 117.183C204.86 117.941 206.036 118.266 207.495 118.266V117.266ZM204.793 116.476C204.297 115.97 203.995 115.106 203.995 113.766H202.995C202.995 115.225 203.32 116.401 204.078 117.175L204.793 116.476ZM203.995 113.766V107.366H202.995V113.766H203.995ZM203.995 107.366C203.995 106.024 204.298 105.17 204.789 104.679L204.082 103.972C203.319 104.735 202.995 105.907 202.995 107.366H203.995ZM204.789 104.679C205.295 104.173 206.157 103.866 207.495 103.866V102.866C206.033 102.866 204.856 103.198 204.082 103.972L204.789 104.679ZM207.495 103.866H212.495V102.866H207.495V103.866ZM212.495 103.866C213.835 103.866 214.687 104.174 215.178 104.675L215.893 103.976C215.13 103.198 213.956 102.866 212.495 102.866V103.866ZM215.186 104.683C215.687 105.174 215.995 106.026 215.995 107.366H216.995C216.995 105.905 216.663 104.731 215.885 103.968L215.186 104.683ZM215.995 107.366V113.766H216.995V107.366H215.995ZM235.705 117.566V118.066H236.205V117.566H235.705ZM231.905 117.566L231.471 117.814L231.615 118.066H231.905V117.566ZM227.105 109.166L227.539 108.918L226.605 107.283V109.166H227.105ZM227.105 117.566V118.066H227.605V117.566H227.105ZM223.505 117.566H223.005V118.066H223.505V117.566ZM223.505 103.566V103.066H223.005V103.566H223.505ZM227.305 103.566L227.739 103.318L227.595 103.066H227.305V103.566ZM232.105 111.966L231.671 112.214L232.605 113.848V111.966H232.105ZM232.105 103.566V103.066H231.605V103.566H232.105ZM235.705 103.566H236.205V103.066H235.705V103.566ZM235.705 117.066H231.905V118.066H235.705V117.066ZM232.339 117.318L227.539 108.918L226.671 109.414L231.471 117.814L232.339 117.318ZM226.605 109.166V117.566H227.605V109.166H226.605ZM227.105 117.066H223.505V118.066H227.105V117.066ZM224.005 117.566V103.566H223.005V117.566H224.005ZM223.505 104.066H227.305V103.066H223.505V104.066ZM226.871 103.814L231.671 112.214L232.539 111.718L227.739 103.318L226.871 103.814ZM232.605 111.966V103.566H231.605V111.966H232.605ZM232.105 104.066H235.705V103.066H232.105V104.066ZM235.205 103.566V117.566H236.205V103.566H235.205ZM254.334 104.746L253.977 105.096L253.984 105.102L254.334 104.746ZM254.334 116.406L254.688 116.759L254.334 116.406ZM243.114 117.566H242.614V118.066H243.114V117.566ZM243.114 103.566V103.066H242.614V103.566H243.114ZM246.714 106.366V105.866H246.214V106.366H246.714ZM246.714 114.766H246.214V115.266H246.714V114.766ZM250.914 104.066C252.337 104.066 253.328 104.436 253.978 105.096L254.691 104.395C253.793 103.482 252.504 103.066 250.914 103.066V104.066ZM253.984 105.102C254.644 105.751 255.014 106.743 255.014 108.166H256.014C256.014 106.575 255.598 105.287 254.685 104.389L253.984 105.102ZM255.014 108.166V112.966H256.014V108.166H255.014ZM255.014 112.966C255.014 114.388 254.644 115.389 253.981 116.052L254.688 116.759C255.597 115.849 256.014 114.557 256.014 112.966H255.014ZM253.981 116.052C253.332 116.701 252.339 117.066 250.914 117.066V118.066C252.502 118.066 253.79 117.657 254.688 116.759L253.981 116.052ZM250.914 117.066H243.114V118.066H250.914V117.066ZM243.614 117.566V103.566H242.614V117.566H243.614ZM243.114 104.066H250.914V103.066H243.114V104.066ZM252.414 108.166C252.414 107.489 252.244 106.889 251.818 106.462C251.391 106.035 250.791 105.866 250.114 105.866V106.866C250.637 106.866 250.937 106.996 251.111 107.169C251.284 107.342 251.414 107.643 251.414 108.166H252.414ZM250.114 105.866H246.714V106.866H250.114V105.866ZM246.214 106.366V114.766H247.214V106.366H246.214ZM246.714 115.266H250.114V114.266H246.714V115.266ZM250.114 115.266C250.791 115.266 251.391 115.096 251.818 114.669C252.244 114.242 252.414 113.643 252.414 112.966H251.414C251.414 113.489 251.284 113.789 251.111 113.962C250.937 114.135 250.637 114.266 250.114 114.266V115.266ZM252.414 112.966V108.166H251.414V112.966H252.414Z" fill="black"/>
</svg>
