<svg width="21" height="21" viewBox="0 0 21 21" fill="none" xmlns="http://www.w3.org/2000/svg">
<path d="M20.4379 16.4174C20.4379 15.9989 20.2705 15.5804 19.9692 15.279L15.0473 10.3571L19.9692 5.43527C20.2705 5.13393 20.4379 4.7154 20.4379 4.29688C20.4379 3.87835 20.2705 3.45982 19.9692 3.15848L17.6924 0.881695C17.391 0.580356 16.9725 0.412945 16.554 0.412945C16.1355 0.412945 15.7169 0.580356 15.4156 0.881695L10.4937 5.80357L5.57185 0.881695C5.27051 0.580356 4.85198 0.412945 4.43345 0.412945C4.01493 0.412945 3.5964 0.580356 3.29506 0.881695L1.01828 3.15848C0.716937 3.45982 0.549526 3.87835 0.549526 4.29688C0.549526 4.7154 0.716937 5.13393 1.01828 5.43527L5.94015 10.3571L1.01828 15.279C0.716937 15.5804 0.549526 15.9989 0.549526 16.4174C0.549526 16.8359 0.716937 17.2545 1.01828 17.5558L3.29506 19.8326C3.5964 20.1339 4.01493 20.3013 4.43345 20.3013C4.85198 20.3013 5.27051 20.1339 5.57185 19.8326L10.4937 14.9107L15.4156 19.8326C15.7169 20.1339 16.1355 20.3013 16.554 20.3013C16.9725 20.3013 17.391 20.1339 17.6924 19.8326L19.9692 17.5558C20.2705 17.2545 20.4379 16.8359 20.4379 16.4174Z" fill="white"/>
</svg>
